<mxfile host="app.diagrams.net" agent="Mozilla/5.0 (Windows NT 10.0; Win64; x64) AppleWebKit/537.36 (KHTML, like Gecko) Chrome/133.0.0.0 Safari/537.36 Edg/133.0.0.0" version="26.0.11">
  <diagram name="第 1 页" id="Ra1sIHrrBIjrnThbIV8f">
    <mxGraphModel dx="1058" dy="676" grid="0" gridSize="10" guides="1" tooltips="1" connect="1" arrows="1" fold="1" page="1" pageScale="1" pageWidth="827" pageHeight="1169" math="1" shadow="0">
      <root>
        <mxCell id="0" />
        <mxCell id="1" parent="0" />
        <mxCell id="cNMmO1RlAhkxUtTiMOyw-80" value="" style="rounded=0;whiteSpace=wrap;html=1;align=center;verticalAlign=middle;fontFamily=Times New Roman;fontSize=18;fontColor=default;textOpacity=30;labelBorderColor=#000000;fillColor=none;dashed=1;fontStyle=0" parent="1" vertex="1">
          <mxGeometry x="30" y="320" width="740" height="150" as="geometry" />
        </mxCell>
        <mxCell id="cNMmO1RlAhkxUtTiMOyw-1" value="The cat is sitting on the mat." style="rounded=1;whiteSpace=wrap;html=1;fillColor=#dae8fc;strokeColor=#6c8ebf;fontSize=18;fontFamily=Times New Roman;fontStyle=0" parent="1" vertex="1">
          <mxGeometry x="72" y="402" width="282" height="60" as="geometry" />
        </mxCell>
        <mxCell id="cNMmO1RlAhkxUtTiMOyw-2" value="NLP is so fascinating." style="rounded=1;whiteSpace=wrap;html=1;fillColor=#d5e8d4;strokeColor=#82b366;fontSize=18;fontFamily=Times New Roman;fontStyle=0" parent="1" vertex="1">
          <mxGeometry x="72" y="332" width="282" height="60" as="geometry" />
        </mxCell>
        <mxCell id="cNMmO1RlAhkxUtTiMOyw-3" value="" style="shape=trapezoid;perimeter=trapezoidPerimeter;whiteSpace=wrap;html=1;fixedSize=1;rotation=90;fillColor=#ffe6cc;strokeColor=#d79b00;fontSize=18;fontFamily=Times New Roman;fontStyle=0" parent="1" vertex="1">
          <mxGeometry x="375" y="365.25" width="123.5" height="64.5" as="geometry" />
        </mxCell>
        <mxCell id="cNMmO1RlAhkxUtTiMOyw-6" value="" style="endArrow=classic;html=1;rounded=0;fontSize=18;fontFamily=Times New Roman;fontStyle=0;strokeWidth=2;" parent="1" edge="1">
          <mxGeometry width="50" height="50" relative="1" as="geometry">
            <mxPoint x="365" y="366" as="sourcePoint" />
            <mxPoint x="395" y="366" as="targetPoint" />
          </mxGeometry>
        </mxCell>
        <mxCell id="cNMmO1RlAhkxUtTiMOyw-7" value="" style="endArrow=classic;html=1;rounded=0;fontSize=18;fontFamily=Times New Roman;fontStyle=0;strokeWidth=2;" parent="1" edge="1">
          <mxGeometry width="50" height="50" relative="1" as="geometry">
            <mxPoint x="365" y="431" as="sourcePoint" />
            <mxPoint x="395" y="431" as="targetPoint" />
          </mxGeometry>
        </mxCell>
        <mxCell id="cNMmO1RlAhkxUtTiMOyw-8" value="ST5" style="text;strokeColor=none;align=center;fillColor=none;html=1;verticalAlign=middle;whiteSpace=wrap;rounded=0;fontSize=18;fontFamily=Times New Roman;fontStyle=0" parent="1" vertex="1">
          <mxGeometry x="399" y="382" width="60" height="30" as="geometry" />
        </mxCell>
        <mxCell id="cNMmO1RlAhkxUtTiMOyw-11" value="" style="endArrow=classic;html=1;rounded=0;fontSize=18;fontFamily=Times New Roman;fontStyle=0;strokeWidth=2;" parent="1" edge="1">
          <mxGeometry width="50" height="50" relative="1" as="geometry">
            <mxPoint x="484" y="366" as="sourcePoint" />
            <mxPoint x="514" y="366" as="targetPoint" />
          </mxGeometry>
        </mxCell>
        <mxCell id="cNMmO1RlAhkxUtTiMOyw-12" value="" style="endArrow=classic;html=1;rounded=0;fontSize=18;fontFamily=Times New Roman;fontStyle=0;strokeWidth=2;" parent="1" edge="1">
          <mxGeometry width="50" height="50" relative="1" as="geometry">
            <mxPoint x="484" y="431" as="sourcePoint" />
            <mxPoint x="514" y="431" as="targetPoint" />
          </mxGeometry>
        </mxCell>
        <mxCell id="cNMmO1RlAhkxUtTiMOyw-13" value="" style="rounded=0;whiteSpace=wrap;html=1;fillColor=#d5e8d4;strokeColor=#82b366;fontSize=18;fontFamily=Times New Roman;fontStyle=0" parent="1" vertex="1">
          <mxGeometry x="526" y="352" width="18" height="47" as="geometry" />
        </mxCell>
        <mxCell id="cNMmO1RlAhkxUtTiMOyw-14" value="" style="rounded=0;whiteSpace=wrap;html=1;fillColor=#dae8fc;strokeColor=#6c8ebf;fontSize=18;fontFamily=Times New Roman;fontStyle=0" parent="1" vertex="1">
          <mxGeometry x="526" y="406" width="18" height="51" as="geometry" />
        </mxCell>
        <mxCell id="cNMmO1RlAhkxUtTiMOyw-17" value="Embeding vector" style="text;strokeColor=none;align=center;fillColor=none;html=1;verticalAlign=middle;whiteSpace=wrap;rounded=0;fontSize=18;fontFamily=Times New Roman;fontStyle=0" parent="1" vertex="1">
          <mxGeometry x="459" y="322" width="150" height="30" as="geometry" />
        </mxCell>
        <mxCell id="cNMmO1RlAhkxUtTiMOyw-27" value="" style="html=1;shadow=0;dashed=0;align=center;verticalAlign=middle;shape=mxgraph.arrows2.arrow;dy=0.62;dx=23.81;notch=5.64;fontSize=18;fontFamily=Times New Roman;fontStyle=0;strokeWidth=1;" parent="1" vertex="1">
          <mxGeometry x="556" y="382" width="104" height="30" as="geometry" />
        </mxCell>
        <mxCell id="cNMmO1RlAhkxUtTiMOyw-30" value="0.64" style="whiteSpace=wrap;html=1;aspect=fixed;fillColor=#f8cecc;strokeColor=#b85450;fontSize=18;fontFamily=Times New Roman;fontStyle=0" parent="1" vertex="1">
          <mxGeometry x="685" y="379" width="37" height="37" as="geometry" />
        </mxCell>
        <mxCell id="cNMmO1RlAhkxUtTiMOyw-31" value="Cosine Similarity" style="text;strokeColor=none;align=center;fillColor=none;html=1;verticalAlign=middle;whiteSpace=wrap;rounded=0;fontSize=18;fontFamily=Times New Roman;fontStyle=0" parent="1" vertex="1">
          <mxGeometry x="603" y="340" width="196" height="30" as="geometry" />
        </mxCell>
        <mxCell id="cNMmO1RlAhkxUtTiMOyw-54" value="" style="shape=table;startSize=0;container=1;collapsible=0;childLayout=tableLayout;fontSize=18;labelBorderColor=default;textOpacity=30;swimlaneFillColor=none;rounded=0;swimlaneLine=1;fillColor=none;fontFamily=Times New Roman;fontStyle=0" parent="1" vertex="1">
          <mxGeometry x="29" y="484" width="740.4695078531902" height="254.43730193493462" as="geometry" />
        </mxCell>
        <mxCell id="cNMmO1RlAhkxUtTiMOyw-55" value="" style="shape=tableRow;horizontal=0;startSize=0;swimlaneHead=0;swimlaneBody=0;strokeColor=inherit;top=0;left=0;bottom=0;right=0;collapsible=0;dropTarget=0;fillColor=none;points=[[0,0.5],[1,0.5]];portConstraint=eastwest;fontSize=18;swimlaneLine=0;fontFamily=Times New Roman;fontStyle=0" parent="cNMmO1RlAhkxUtTiMOyw-54" vertex="1">
          <mxGeometry width="740.4695078531902" height="47" as="geometry" />
        </mxCell>
        <mxCell id="cNMmO1RlAhkxUtTiMOyw-56" value="&lt;span&gt;Sentence 1&lt;/span&gt;" style="shape=partialRectangle;html=1;whiteSpace=wrap;connectable=0;strokeColor=inherit;overflow=hidden;fillColor=none;top=0;left=0;bottom=0;right=0;pointerEvents=1;fontSize=18;align=center;spacingLeft=5;fontFamily=Times New Roman;fontStyle=1" parent="cNMmO1RlAhkxUtTiMOyw-55" vertex="1">
          <mxGeometry width="187" height="47" as="geometry">
            <mxRectangle width="187" height="47" as="alternateBounds" />
          </mxGeometry>
        </mxCell>
        <mxCell id="cNMmO1RlAhkxUtTiMOyw-63" value="&lt;span&gt;Sentence 2&lt;/span&gt;" style="shape=partialRectangle;html=1;whiteSpace=wrap;connectable=0;strokeColor=inherit;overflow=hidden;fillColor=none;top=0;left=0;bottom=0;right=0;pointerEvents=1;fontSize=18;align=center;spacingLeft=5;fontFamily=Times New Roman;fontStyle=1" parent="cNMmO1RlAhkxUtTiMOyw-55" vertex="1">
          <mxGeometry x="187" width="455" height="47" as="geometry">
            <mxRectangle width="455" height="47" as="alternateBounds" />
          </mxGeometry>
        </mxCell>
        <mxCell id="cNMmO1RlAhkxUtTiMOyw-67" value="&lt;span&gt;Cosine Similarity&lt;/span&gt;" style="shape=partialRectangle;html=1;whiteSpace=wrap;connectable=0;strokeColor=inherit;overflow=hidden;fillColor=none;top=0;left=0;bottom=0;right=0;pointerEvents=1;fontSize=18;align=center;spacingLeft=5;fontFamily=Times New Roman;fontStyle=1" parent="cNMmO1RlAhkxUtTiMOyw-55" vertex="1">
          <mxGeometry x="642" width="98" height="47" as="geometry">
            <mxRectangle width="98" height="47" as="alternateBounds" />
          </mxGeometry>
        </mxCell>
        <mxCell id="cNMmO1RlAhkxUtTiMOyw-57" value="" style="shape=tableRow;horizontal=0;startSize=0;swimlaneHead=0;swimlaneBody=0;strokeColor=inherit;top=0;left=0;bottom=0;right=0;collapsible=0;dropTarget=0;fillColor=none;points=[[0,0.5],[1,0.5]];portConstraint=eastwest;fontSize=18;fontFamily=Times New Roman;fontStyle=0" parent="cNMmO1RlAhkxUtTiMOyw-54" vertex="1">
          <mxGeometry y="47" width="740.4695078531902" height="41" as="geometry" />
        </mxCell>
        <mxCell id="cNMmO1RlAhkxUtTiMOyw-58" value="&lt;span style=&quot;text-align: center;&quot;&gt;NLP is so fascinating.&lt;/span&gt;" style="shape=partialRectangle;html=1;whiteSpace=wrap;connectable=0;strokeColor=inherit;overflow=hidden;fillColor=none;top=0;left=0;bottom=0;right=0;pointerEvents=1;fontSize=18;align=left;spacingLeft=5;fontFamily=Times New Roman;fontStyle=0" parent="cNMmO1RlAhkxUtTiMOyw-57" vertex="1">
          <mxGeometry width="187" height="41" as="geometry">
            <mxRectangle width="187" height="41" as="alternateBounds" />
          </mxGeometry>
        </mxCell>
        <mxCell id="cNMmO1RlAhkxUtTiMOyw-64" value="&lt;span style=&quot;text-align: center;&quot;&gt;The cat is sitting on the mat.&lt;/span&gt;" style="shape=partialRectangle;html=1;whiteSpace=wrap;connectable=0;strokeColor=inherit;overflow=hidden;fillColor=none;top=0;left=0;bottom=0;right=0;pointerEvents=1;fontSize=18;align=left;spacingLeft=5;fontFamily=Times New Roman;fontStyle=0" parent="cNMmO1RlAhkxUtTiMOyw-57" vertex="1">
          <mxGeometry x="187" width="455" height="41" as="geometry">
            <mxRectangle width="455" height="41" as="alternateBounds" />
          </mxGeometry>
        </mxCell>
        <mxCell id="cNMmO1RlAhkxUtTiMOyw-68" value="&lt;span&gt;0.6404&lt;/span&gt;" style="shape=partialRectangle;html=1;whiteSpace=wrap;connectable=0;strokeColor=inherit;overflow=hidden;fillColor=none;top=0;left=0;bottom=0;right=0;pointerEvents=1;fontSize=18;align=center;spacingLeft=5;fontFamily=Times New Roman;fontStyle=0" parent="cNMmO1RlAhkxUtTiMOyw-57" vertex="1">
          <mxGeometry x="642" width="98" height="41" as="geometry">
            <mxRectangle width="98" height="41" as="alternateBounds" />
          </mxGeometry>
        </mxCell>
        <mxCell id="cNMmO1RlAhkxUtTiMOyw-59" value="" style="shape=tableRow;horizontal=0;startSize=0;swimlaneHead=0;swimlaneBody=0;strokeColor=inherit;top=0;left=0;bottom=0;right=0;collapsible=0;dropTarget=0;fillColor=none;points=[[0,0.5],[1,0.5]];portConstraint=eastwest;fontSize=18;fontFamily=Times New Roman;fontStyle=0" parent="cNMmO1RlAhkxUtTiMOyw-54" vertex="1">
          <mxGeometry y="88" width="740.4695078531902" height="42" as="geometry" />
        </mxCell>
        <mxCell id="cNMmO1RlAhkxUtTiMOyw-60" value="&lt;span style=&quot;text-align: center;&quot;&gt;NLP is so fascinating.&lt;/span&gt;" style="shape=partialRectangle;html=1;whiteSpace=wrap;connectable=0;strokeColor=inherit;overflow=hidden;fillColor=none;top=0;left=0;bottom=0;right=0;pointerEvents=1;fontSize=18;align=left;spacingLeft=5;fontFamily=Times New Roman;fontStyle=0" parent="cNMmO1RlAhkxUtTiMOyw-59" vertex="1">
          <mxGeometry width="187" height="42" as="geometry">
            <mxRectangle width="187" height="42" as="alternateBounds" />
          </mxGeometry>
        </mxCell>
        <mxCell id="cNMmO1RlAhkxUtTiMOyw-65" value="&lt;span style=&quot;text-align: center;&quot;&gt;The cat is sitting on the mat.&lt;font style=&quot;color: rgb(126, 166, 224);&quot;&gt;lucrarea&lt;/font&gt;&lt;/span&gt;" style="shape=partialRectangle;html=1;whiteSpace=wrap;connectable=0;strokeColor=inherit;overflow=hidden;fillColor=none;top=0;left=0;bottom=0;right=0;pointerEvents=1;fontSize=18;align=left;spacingLeft=5;fontFamily=Times New Roman;fontStyle=0" parent="cNMmO1RlAhkxUtTiMOyw-59" vertex="1">
          <mxGeometry x="187" width="455" height="42" as="geometry">
            <mxRectangle width="455" height="42" as="alternateBounds" />
          </mxGeometry>
        </mxCell>
        <mxCell id="cNMmO1RlAhkxUtTiMOyw-69" value="&lt;span&gt;0.6958&lt;/span&gt;" style="shape=partialRectangle;html=1;whiteSpace=wrap;connectable=0;strokeColor=inherit;overflow=hidden;fillColor=none;top=0;left=0;bottom=0;right=0;pointerEvents=1;fontSize=18;align=center;spacingLeft=5;fontFamily=Times New Roman;fontStyle=0" parent="cNMmO1RlAhkxUtTiMOyw-59" vertex="1">
          <mxGeometry x="642" width="98" height="42" as="geometry">
            <mxRectangle width="98" height="42" as="alternateBounds" />
          </mxGeometry>
        </mxCell>
        <mxCell id="cNMmO1RlAhkxUtTiMOyw-61" style="shape=tableRow;horizontal=0;startSize=0;swimlaneHead=0;swimlaneBody=0;strokeColor=inherit;top=0;left=0;bottom=0;right=0;collapsible=0;dropTarget=0;fillColor=none;points=[[0,0.5],[1,0.5]];portConstraint=eastwest;fontSize=18;fontFamily=Times New Roman;fontStyle=0" parent="cNMmO1RlAhkxUtTiMOyw-54" vertex="1">
          <mxGeometry y="130" width="740.4695078531902" height="41" as="geometry" />
        </mxCell>
        <mxCell id="cNMmO1RlAhkxUtTiMOyw-62" value="&lt;span style=&quot;text-align: center;&quot;&gt;NLP is so fascinating.&lt;/span&gt;" style="shape=partialRectangle;html=1;whiteSpace=wrap;connectable=0;strokeColor=inherit;overflow=hidden;fillColor=none;top=0;left=0;bottom=0;right=0;pointerEvents=1;fontSize=18;align=left;spacingLeft=5;fontFamily=Times New Roman;fontStyle=0" parent="cNMmO1RlAhkxUtTiMOyw-61" vertex="1">
          <mxGeometry width="187" height="41" as="geometry">
            <mxRectangle width="187" height="41" as="alternateBounds" />
          </mxGeometry>
        </mxCell>
        <mxCell id="cNMmO1RlAhkxUtTiMOyw-66" value="&lt;span&gt;&lt;span style=&quot;text-align: center; float: none; color: rgb(0, 0, 0); display: inline !important;&quot;&gt;The cat is sitting on the mat.&lt;/span&gt;&lt;/span&gt;&lt;span style=&quot;color: rgb(126, 166, 224); text-align: center;&quot;&gt;lucrarea&lt;/span&gt;&lt;span style=&quot;color: rgb(126, 166, 224); text-align: center;&quot;&gt;lucrarea&lt;/span&gt;" style="shape=partialRectangle;html=1;whiteSpace=wrap;connectable=0;strokeColor=inherit;overflow=hidden;fillColor=none;top=0;left=0;bottom=0;right=0;pointerEvents=1;fontSize=18;align=left;spacingLeft=5;fontFamily=Times New Roman;fontStyle=0" parent="cNMmO1RlAhkxUtTiMOyw-61" vertex="1">
          <mxGeometry x="187" width="455" height="41" as="geometry">
            <mxRectangle width="455" height="41" as="alternateBounds" />
          </mxGeometry>
        </mxCell>
        <mxCell id="cNMmO1RlAhkxUtTiMOyw-70" value="&lt;span&gt;0.7190&lt;/span&gt;" style="shape=partialRectangle;html=1;whiteSpace=wrap;connectable=0;strokeColor=inherit;overflow=hidden;fillColor=none;top=0;left=0;bottom=0;right=0;pointerEvents=1;fontSize=18;align=center;spacingLeft=5;fontFamily=Times New Roman;fontStyle=0" parent="cNMmO1RlAhkxUtTiMOyw-61" vertex="1">
          <mxGeometry x="642" width="98" height="41" as="geometry">
            <mxRectangle width="98" height="41" as="alternateBounds" />
          </mxGeometry>
        </mxCell>
        <mxCell id="cNMmO1RlAhkxUtTiMOyw-71" style="shape=tableRow;horizontal=0;startSize=0;swimlaneHead=0;swimlaneBody=0;strokeColor=inherit;top=0;left=0;bottom=0;right=0;collapsible=0;dropTarget=0;fillColor=none;points=[[0,0.5],[1,0.5]];portConstraint=eastwest;fontSize=18;fontFamily=Times New Roman;fontStyle=0" parent="cNMmO1RlAhkxUtTiMOyw-54" vertex="1">
          <mxGeometry y="171" width="740.4695078531902" height="42" as="geometry" />
        </mxCell>
        <mxCell id="cNMmO1RlAhkxUtTiMOyw-72" value="&lt;span style=&quot;text-align: center;&quot;&gt;NLP is so fascinating.&lt;/span&gt;" style="shape=partialRectangle;html=1;whiteSpace=wrap;connectable=0;strokeColor=inherit;overflow=hidden;fillColor=none;top=0;left=0;bottom=0;right=0;pointerEvents=1;fontSize=18;align=left;spacingLeft=5;fontFamily=Times New Roman;fontStyle=0" parent="cNMmO1RlAhkxUtTiMOyw-71" vertex="1">
          <mxGeometry width="187" height="42" as="geometry">
            <mxRectangle width="187" height="42" as="alternateBounds" />
          </mxGeometry>
        </mxCell>
        <mxCell id="cNMmO1RlAhkxUtTiMOyw-73" value="&lt;span&gt;&lt;span style=&quot;text-align: center; float: none; color: rgb(0, 0, 0); display: inline !important;&quot;&gt;The cat is sitting on the mat.&lt;/span&gt;&lt;/span&gt;&lt;span style=&quot;background-color: transparent; color: rgb(126, 166, 224); text-align: center;&quot;&gt;lucrarea&lt;/span&gt;&lt;span style=&quot;background-color: transparent; color: rgb(126, 166, 224); text-align: center;&quot;&gt;lucrarea&lt;/span&gt;&lt;span style=&quot;background-color: transparent; color: light-dark(rgb(126, 166, 224), rgb(67, 102, 151)); text-align: center;&quot;&gt;lucrarea&lt;/span&gt;" style="shape=partialRectangle;html=1;whiteSpace=wrap;connectable=0;strokeColor=inherit;overflow=hidden;fillColor=none;top=0;left=0;bottom=0;right=0;pointerEvents=1;fontSize=18;align=left;spacingLeft=5;fontFamily=Times New Roman;fontStyle=0" parent="cNMmO1RlAhkxUtTiMOyw-71" vertex="1">
          <mxGeometry x="187" width="455" height="42" as="geometry">
            <mxRectangle width="455" height="42" as="alternateBounds" />
          </mxGeometry>
        </mxCell>
        <mxCell id="cNMmO1RlAhkxUtTiMOyw-74" value="&lt;span&gt;0.7325&lt;/span&gt;" style="shape=partialRectangle;html=1;whiteSpace=wrap;connectable=0;strokeColor=inherit;overflow=hidden;fillColor=none;top=0;left=0;bottom=0;right=0;pointerEvents=1;fontSize=18;align=center;spacingLeft=5;fontFamily=Times New Roman;fontStyle=0" parent="cNMmO1RlAhkxUtTiMOyw-71" vertex="1">
          <mxGeometry x="642" width="98" height="42" as="geometry">
            <mxRectangle width="98" height="42" as="alternateBounds" />
          </mxGeometry>
        </mxCell>
        <mxCell id="cNMmO1RlAhkxUtTiMOyw-75" style="shape=tableRow;horizontal=0;startSize=0;swimlaneHead=0;swimlaneBody=0;strokeColor=inherit;top=0;left=0;bottom=0;right=0;collapsible=0;dropTarget=0;fillColor=none;points=[[0,0.5],[1,0.5]];portConstraint=eastwest;fontSize=18;fontFamily=Times New Roman;fontStyle=0" parent="cNMmO1RlAhkxUtTiMOyw-54" vertex="1">
          <mxGeometry y="213" width="740.4695078531902" height="41" as="geometry" />
        </mxCell>
        <mxCell id="cNMmO1RlAhkxUtTiMOyw-76" value="&lt;span style=&quot;text-align: center;&quot;&gt;NLP is so fascinating.&lt;/span&gt;" style="shape=partialRectangle;html=1;whiteSpace=wrap;connectable=0;strokeColor=inherit;overflow=hidden;fillColor=none;top=0;left=0;bottom=0;right=0;pointerEvents=1;fontSize=18;align=left;spacingLeft=5;fontFamily=Times New Roman;fontStyle=0" parent="cNMmO1RlAhkxUtTiMOyw-75" vertex="1">
          <mxGeometry width="187" height="41" as="geometry">
            <mxRectangle width="187" height="41" as="alternateBounds" />
          </mxGeometry>
        </mxCell>
        <mxCell id="cNMmO1RlAhkxUtTiMOyw-77" value="&lt;span style=&quot;color: rgb(0, 0, 0); text-align: center; float: none; display: inline !important;&quot;&gt;The cat is sitting on the mat.&lt;/span&gt;&lt;span style=&quot;background-color: transparent; color: rgb(126, 166, 224); text-align: center;&quot;&gt;lucrarea&lt;/span&gt;&lt;span style=&quot;background-color: transparent; color: rgb(126, 166, 224); text-align: center;&quot;&gt;lucrarea&lt;/span&gt;&lt;span style=&quot;background-color: transparent; color: rgb(126, 166, 224); text-align: center;&quot;&gt;lucrarea&lt;/span&gt;&lt;span style=&quot;background-color: transparent; color: rgb(126, 166, 224); text-align: center;&quot;&gt;lucrarea&lt;/span&gt;" style="shape=partialRectangle;html=1;whiteSpace=wrap;connectable=0;strokeColor=inherit;overflow=hidden;fillColor=none;top=0;left=0;bottom=0;right=0;pointerEvents=1;fontSize=18;align=left;spacingLeft=5;fontFamily=Times New Roman;fontStyle=0" parent="cNMmO1RlAhkxUtTiMOyw-75" vertex="1">
          <mxGeometry x="187" width="455" height="41" as="geometry">
            <mxRectangle width="455" height="41" as="alternateBounds" />
          </mxGeometry>
        </mxCell>
        <mxCell id="cNMmO1RlAhkxUtTiMOyw-78" value="&lt;span&gt;0.7420&lt;/span&gt;" style="shape=partialRectangle;html=1;whiteSpace=wrap;connectable=0;strokeColor=inherit;overflow=hidden;fillColor=none;top=0;left=0;bottom=0;right=0;pointerEvents=1;fontSize=18;align=center;spacingLeft=5;fontFamily=Times New Roman;fontStyle=0" parent="cNMmO1RlAhkxUtTiMOyw-75" vertex="1">
          <mxGeometry x="642" width="98" height="41" as="geometry">
            <mxRectangle width="98" height="41" as="alternateBounds" />
          </mxGeometry>
        </mxCell>
        <mxCell id="LRbdBa953eH6UKj4Q6So-3" value="$$e_{1}$$" style="text;strokeColor=none;align=center;fillColor=none;html=1;verticalAlign=middle;whiteSpace=wrap;rounded=0;fontFamily=Times New Roman;fontSize=18;" vertex="1" parent="1">
          <mxGeometry x="505" y="358.5" width="60" height="30" as="geometry" />
        </mxCell>
        <mxCell id="LRbdBa953eH6UKj4Q6So-4" value="$$e_{2}$$" style="text;strokeColor=none;align=center;fillColor=none;html=1;verticalAlign=middle;whiteSpace=wrap;rounded=0;fontFamily=Times New Roman;fontSize=18;" vertex="1" parent="1">
          <mxGeometry x="505" y="412" width="60" height="30" as="geometry" />
        </mxCell>
        <mxCell id="LRbdBa953eH6UKj4Q6So-5" value="$$s_{1}$$" style="text;strokeColor=none;align=center;fillColor=none;html=1;verticalAlign=middle;whiteSpace=wrap;rounded=0;fontFamily=Times New Roman;fontSize=18;" vertex="1" parent="1">
          <mxGeometry x="21" y="347" width="60" height="30" as="geometry" />
        </mxCell>
        <mxCell id="LRbdBa953eH6UKj4Q6So-6" value="$$s_{2}$$" style="text;strokeColor=none;align=center;fillColor=none;html=1;verticalAlign=middle;whiteSpace=wrap;rounded=0;fontFamily=Times New Roman;fontSize=18;" vertex="1" parent="1">
          <mxGeometry x="21" y="416" width="60" height="30" as="geometry" />
        </mxCell>
        <mxCell id="LRbdBa953eH6UKj4Q6So-9" value="\(sim_0 = \frac{\mathbf{e}_1^T \cdot \mathbf{e}_2}{|\mathbf{e}_1| \cdot&amp;nbsp; |\mathbf{e}_2|}\)" style="text;strokeColor=none;align=center;fillColor=none;html=1;verticalAlign=middle;whiteSpace=wrap;rounded=0;fontFamily=Times New Roman;fontSize=18;" vertex="1" parent="1">
          <mxGeometry x="540" y="388.5" width="159" height="86" as="geometry" />
        </mxCell>
      </root>
    </mxGraphModel>
  </diagram>
</mxfile>
